<svg width="32" height="32" viewBox="0 0 32 32" fill="none" xmlns="http://www.w3.org/2000/svg">
<g clip-path="url(#clip0_402_5070)">
<path d="M22.3967 7.4C19.9222 7.4 18.1695 8.48972 17.1322 9.40556C17.5672 4.91384 20.2645 3.08 20.2645 3.08L18.1322 2C18.1322 2 15.3817 4.79396 14.9851 9.5114C13.9637 8.57612 12.1737 7.4 9.60331 7.4C5.33886 7.4 2.14051 10.64 3.20663 17.12C4.60857 25.6434 8.5372 29 11.7355 29C13.8678 29 16 26.84 16 26.84C16 26.84 18.1322 29 20.2645 29C23.4628 29 27.3914 25.6434 28.7934 17.12C29.8595 10.64 26.6611 7.4 22.3967 7.4Z" fill="#BB69C9"/>
</g>
<defs>
<clipPath id="clip0_402_5070">
<rect width="32" height="32" fill="white"/>
</clipPath>
</defs>
</svg>
